<svg width="1052" height="1032" viewBox="0 0 1052 1032" fill="none" xmlns="http://www.w3.org/2000/svg">
<g style="mix-blend-mode:plus-darker" opacity="0.2" filter="url(#filter0_f_2033_33)">
<rect x="4" y="4" width="12" height="1024" fill="#CCCCCC"/>
<rect x="28" y="4" width="12" height="1024" fill="#CCCCCC"/>
<rect x="52" y="4" width="12" height="1024" fill="#CCCCCC"/>
<rect x="76" y="4" width="12" height="1024" fill="#CCCCCC"/>
<rect x="100" y="4" width="12" height="1024" fill="#CCCCCC"/>
<rect x="124" y="4" width="12" height="1024" fill="#CCCCCC"/>
<rect x="148" y="4" width="12" height="1024" fill="#CCCCCC"/>
<rect x="172" y="4" width="12" height="1024" fill="#CCCCCC"/>
<rect x="196" y="4" width="12" height="1024" fill="#CCCCCC"/>
<rect x="220" y="4" width="12" height="1024" fill="#CCCCCC"/>
<rect x="244" y="4" width="12" height="1024" fill="#CCCCCC"/>
<rect x="268" y="4" width="12" height="1024" fill="#CCCCCC"/>
<rect x="292" y="4" width="12" height="1024" fill="#CCCCCC"/>
<rect x="316" y="4" width="12" height="1024" fill="#CCCCCC"/>
<rect x="340" y="4" width="12" height="1024" fill="#CCCCCC"/>
<rect x="364" y="4" width="12" height="1024" fill="#CCCCCC"/>
<rect x="388" y="4" width="12" height="1024" fill="#CCCCCC"/>
<rect x="412" y="4" width="12" height="1024" fill="#CCCCCC"/>
<rect x="436" y="4" width="12" height="1024" fill="#CCCCCC"/>
<rect x="460" y="4" width="12" height="1024" fill="#CCCCCC"/>
<rect x="484" y="4" width="12" height="1024" fill="#CCCCCC"/>
<rect x="508" y="4" width="12" height="1024" fill="#CCCCCC"/>
<rect x="532" y="4" width="12" height="1024" fill="#CCCCCC"/>
<rect x="556" y="4" width="12" height="1024" fill="#CCCCCC"/>
<rect x="580" y="4" width="12" height="1024" fill="#CCCCCC"/>
<rect x="604" y="4" width="12" height="1024" fill="#CCCCCC"/>
<rect x="628" y="4" width="12" height="1024" fill="#CCCCCC"/>
<rect x="652" y="4" width="12" height="1024" fill="#CCCCCC"/>
<rect x="676" y="4" width="12" height="1024" fill="#CCCCCC"/>
<rect x="700" y="4" width="12" height="1024" fill="#CCCCCC"/>
<rect x="724" y="4" width="12" height="1024" fill="#CCCCCC"/>
<rect x="748" y="4" width="12" height="1024" fill="#CCCCCC"/>
<rect x="772" y="4" width="12" height="1024" fill="#CCCCCC"/>
<rect x="796" y="4" width="12" height="1024" fill="#CCCCCC"/>
<rect x="820" y="4" width="12" height="1024" fill="#CCCCCC"/>
<rect x="844" y="4" width="12" height="1024" fill="#CCCCCC"/>
<rect x="868" y="4" width="12" height="1024" fill="#CCCCCC"/>
<rect x="892" y="4" width="12" height="1024" fill="#CCCCCC"/>
<rect x="916" y="4" width="12" height="1024" fill="#CCCCCC"/>
<rect x="940" y="4" width="12" height="1024" fill="#CCCCCC"/>
<rect x="964" y="4" width="12" height="1024" fill="#CCCCCC"/>
<rect x="988" y="4" width="12" height="1024" fill="#CCCCCC"/>
<rect x="1012" y="4" width="12" height="1024" fill="#CCCCCC"/>
<rect x="1036" y="4" width="12" height="1024" fill="#CCCCCC"/>
</g>
<defs>
<filter id="filter0_f_2033_33" x="0" y="0" width="1052" height="1032" filterUnits="userSpaceOnUse" color-interpolation-filters="sRGB">
<feFlood flood-opacity="0" result="BackgroundImageFix"/>
<feBlend mode="normal" in="SourceGraphic" in2="BackgroundImageFix" result="shape"/>
<feGaussianBlur stdDeviation="2" result="effect1_foregroundBlur_2033_33"/>
</filter>
</defs>
</svg>
