<svg width="1024" height="1024" viewBox="0 0 1024 1024" fill="none" xmlns="http://www.w3.org/2000/svg">
<g filter="url(#filter0_i_2033_33)">
<path d="M110 734C105.582 734 102 730.418 102 726L102 708C102 703.582 105.582 700 110 700L162 700L162 734L110 734Z" fill="white"/>
<path d="M110 734C105.582 734 102 730.418 102 726L102 708C102 703.582 105.582 700 110 700L162 700L162 734L110 734Z" fill="url(#paint0_linear_2033_33)" fill-opacity="0.5"/>
</g>
<g filter="url(#filter1_i_2033_33)">
<path d="M110 666C105.582 666 102 662.418 102 658L102 640C102 635.582 105.582 632 110 632L162 632L162 666L110 666Z" fill="white"/>
<path d="M110 666C105.582 666 102 662.418 102 658L102 640C102 635.582 105.582 632 110 632L162 632L162 666L110 666Z" fill="url(#paint1_linear_2033_33)" fill-opacity="0.5"/>
</g>
<g filter="url(#filter2_i_2033_33)">
<path d="M110 598C105.582 598 102 594.418 102 590L102 572C102 567.582 105.582 564 110 564L162 564L162 598L110 598Z" fill="white"/>
<path d="M110 598C105.582 598 102 594.418 102 590L102 572C102 567.582 105.582 564 110 564L162 564L162 598L110 598Z" fill="url(#paint2_linear_2033_33)" fill-opacity="0.5"/>
</g>
<g filter="url(#filter3_i_2033_33)">
<path d="M110 530C105.582 530 102 526.418 102 522L102 504C102 499.582 105.582 496 110 496L162 496L162 530L110 530Z" fill="white"/>
<path d="M110 530C105.582 530 102 526.418 102 522L102 504C102 499.582 105.582 496 110 496L162 496L162 530L110 530Z" fill="url(#paint3_linear_2033_33)" fill-opacity="0.5"/>
</g>
<g filter="url(#filter4_i_2033_33)">
<path d="M110 462C105.582 462 102 458.418 102 454L102 436C102 431.582 105.582 428 110 428L162 428L162 462L110 462Z" fill="white"/>
<path d="M110 462C105.582 462 102 458.418 102 454L102 436C102 431.582 105.582 428 110 428L162 428L162 462L110 462Z" fill="url(#paint4_linear_2033_33)" fill-opacity="0.5"/>
</g>
<g filter="url(#filter5_i_2033_33)">
<path d="M110 394C105.582 394 102 390.418 102 386L102 368C102 363.582 105.582 360 110 360L162 360L162 394L110 394Z" fill="white"/>
<path d="M110 394C105.582 394 102 390.418 102 386L102 368C102 363.582 105.582 360 110 360L162 360L162 394L110 394Z" fill="url(#paint5_linear_2033_33)" fill-opacity="0.5"/>
</g>
<g filter="url(#filter6_i_2033_33)">
<path d="M110 326C105.582 326 102 322.418 102 318L102 300C102 295.582 105.582 292 110 292L162 292L162 326L110 326Z" fill="white"/>
<path d="M110 326C105.582 326 102 322.418 102 318L102 300C102 295.582 105.582 292 110 292L162 292L162 326L110 326Z" fill="url(#paint6_linear_2033_33)" fill-opacity="0.5"/>
</g>
<g filter="url(#filter7_i_2033_33)">
<path d="M914 734C918.418 734 922 730.418 922 726L922 708C922 703.582 918.418 700 914 700L862 700L862 734L914 734Z" fill="white"/>
<path d="M914 734C918.418 734 922 730.418 922 726L922 708C922 703.582 918.418 700 914 700L862 700L862 734L914 734Z" fill="url(#paint7_linear_2033_33)" fill-opacity="0.5"/>
</g>
<g filter="url(#filter8_i_2033_33)">
<path d="M914 666C918.418 666 922 662.418 922 658L922 640C922 635.582 918.418 632 914 632L862 632L862 666L914 666Z" fill="white"/>
<path d="M914 666C918.418 666 922 662.418 922 658L922 640C922 635.582 918.418 632 914 632L862 632L862 666L914 666Z" fill="url(#paint8_linear_2033_33)" fill-opacity="0.5"/>
</g>
<g filter="url(#filter9_i_2033_33)">
<path d="M914 598C918.418 598 922 594.418 922 590L922 572C922 567.582 918.418 564 914 564L862 564L862 598L914 598Z" fill="white"/>
<path d="M914 598C918.418 598 922 594.418 922 590L922 572C922 567.582 918.418 564 914 564L862 564L862 598L914 598Z" fill="url(#paint9_linear_2033_33)" fill-opacity="0.5"/>
</g>
<g filter="url(#filter10_i_2033_33)">
<path d="M914 530C918.418 530 922 526.418 922 522L922 504C922 499.582 918.418 496 914 496L862 496L862 530L914 530Z" fill="white"/>
<path d="M914 530C918.418 530 922 526.418 922 522L922 504C922 499.582 918.418 496 914 496L862 496L862 530L914 530Z" fill="url(#paint10_linear_2033_33)" fill-opacity="0.5"/>
</g>
<g filter="url(#filter11_i_2033_33)">
<path d="M914 462C918.418 462 922 458.418 922 454L922 436C922 431.582 918.418 428 914 428L862 428L862 462L914 462Z" fill="white"/>
<path d="M914 462C918.418 462 922 458.418 922 454L922 436C922 431.582 918.418 428 914 428L862 428L862 462L914 462Z" fill="url(#paint11_linear_2033_33)" fill-opacity="0.5"/>
</g>
<g filter="url(#filter12_i_2033_33)">
<path d="M914 394C918.418 394 922 390.418 922 386L922 368C922 363.582 918.418 360 914 360L862 360L862 394L914 394Z" fill="white"/>
<path d="M914 394C918.418 394 922 390.418 922 386L922 368C922 363.582 918.418 360 914 360L862 360L862 394L914 394Z" fill="url(#paint12_linear_2033_33)" fill-opacity="0.5"/>
</g>
<g filter="url(#filter13_i_2033_33)">
<path d="M914 326C918.418 326 922 322.418 922 318L922 300C922 295.582 918.418 292 914 292L862 292L862 326L914 326Z" fill="white"/>
<path d="M914 326C918.418 326 922 322.418 922 318L922 300C922 295.582 918.418 292 914 292L862 292L862 326L914 326Z" fill="url(#paint13_linear_2033_33)" fill-opacity="0.5"/>
</g>
<defs>
<filter id="filter0_i_2033_33" x="102" y="698" width="60" height="36" filterUnits="userSpaceOnUse" color-interpolation-filters="sRGB">
<feFlood flood-opacity="0" result="BackgroundImageFix"/>
<feBlend mode="normal" in="SourceGraphic" in2="BackgroundImageFix" result="shape"/>
<feColorMatrix in="SourceAlpha" type="matrix" values="0 0 0 0 0 0 0 0 0 0 0 0 0 0 0 0 0 0 127 0" result="hardAlpha"/>
<feMorphology radius="4" operator="erode" in="SourceAlpha" result="effect1_innerShadow_2033_33"/>
<feOffset dy="-2"/>
<feGaussianBlur stdDeviation="1"/>
<feComposite in2="hardAlpha" operator="arithmetic" k2="-1" k3="1"/>
<feColorMatrix type="matrix" values="0 0 0 0 0 0 0 0 0 0 0 0 0 0 0 0 0 0 0.3 0"/>
<feBlend mode="normal" in2="shape" result="effect1_innerShadow_2033_33"/>
</filter>
<filter id="filter1_i_2033_33" x="102" y="630" width="60" height="36" filterUnits="userSpaceOnUse" color-interpolation-filters="sRGB">
<feFlood flood-opacity="0" result="BackgroundImageFix"/>
<feBlend mode="normal" in="SourceGraphic" in2="BackgroundImageFix" result="shape"/>
<feColorMatrix in="SourceAlpha" type="matrix" values="0 0 0 0 0 0 0 0 0 0 0 0 0 0 0 0 0 0 127 0" result="hardAlpha"/>
<feMorphology radius="4" operator="erode" in="SourceAlpha" result="effect1_innerShadow_2033_33"/>
<feOffset dy="-2"/>
<feGaussianBlur stdDeviation="1"/>
<feComposite in2="hardAlpha" operator="arithmetic" k2="-1" k3="1"/>
<feColorMatrix type="matrix" values="0 0 0 0 0 0 0 0 0 0 0 0 0 0 0 0 0 0 0.3 0"/>
<feBlend mode="normal" in2="shape" result="effect1_innerShadow_2033_33"/>
</filter>
<filter id="filter2_i_2033_33" x="102" y="562" width="60" height="36" filterUnits="userSpaceOnUse" color-interpolation-filters="sRGB">
<feFlood flood-opacity="0" result="BackgroundImageFix"/>
<feBlend mode="normal" in="SourceGraphic" in2="BackgroundImageFix" result="shape"/>
<feColorMatrix in="SourceAlpha" type="matrix" values="0 0 0 0 0 0 0 0 0 0 0 0 0 0 0 0 0 0 127 0" result="hardAlpha"/>
<feMorphology radius="4" operator="erode" in="SourceAlpha" result="effect1_innerShadow_2033_33"/>
<feOffset dy="-2"/>
<feGaussianBlur stdDeviation="1"/>
<feComposite in2="hardAlpha" operator="arithmetic" k2="-1" k3="1"/>
<feColorMatrix type="matrix" values="0 0 0 0 0 0 0 0 0 0 0 0 0 0 0 0 0 0 0.3 0"/>
<feBlend mode="normal" in2="shape" result="effect1_innerShadow_2033_33"/>
</filter>
<filter id="filter3_i_2033_33" x="102" y="494" width="60" height="36" filterUnits="userSpaceOnUse" color-interpolation-filters="sRGB">
<feFlood flood-opacity="0" result="BackgroundImageFix"/>
<feBlend mode="normal" in="SourceGraphic" in2="BackgroundImageFix" result="shape"/>
<feColorMatrix in="SourceAlpha" type="matrix" values="0 0 0 0 0 0 0 0 0 0 0 0 0 0 0 0 0 0 127 0" result="hardAlpha"/>
<feMorphology radius="4" operator="erode" in="SourceAlpha" result="effect1_innerShadow_2033_33"/>
<feOffset dy="-2"/>
<feGaussianBlur stdDeviation="1"/>
<feComposite in2="hardAlpha" operator="arithmetic" k2="-1" k3="1"/>
<feColorMatrix type="matrix" values="0 0 0 0 0 0 0 0 0 0 0 0 0 0 0 0 0 0 0.3 0"/>
<feBlend mode="normal" in2="shape" result="effect1_innerShadow_2033_33"/>
</filter>
<filter id="filter4_i_2033_33" x="102" y="426" width="60" height="36" filterUnits="userSpaceOnUse" color-interpolation-filters="sRGB">
<feFlood flood-opacity="0" result="BackgroundImageFix"/>
<feBlend mode="normal" in="SourceGraphic" in2="BackgroundImageFix" result="shape"/>
<feColorMatrix in="SourceAlpha" type="matrix" values="0 0 0 0 0 0 0 0 0 0 0 0 0 0 0 0 0 0 127 0" result="hardAlpha"/>
<feMorphology radius="4" operator="erode" in="SourceAlpha" result="effect1_innerShadow_2033_33"/>
<feOffset dy="-2"/>
<feGaussianBlur stdDeviation="1"/>
<feComposite in2="hardAlpha" operator="arithmetic" k2="-1" k3="1"/>
<feColorMatrix type="matrix" values="0 0 0 0 0 0 0 0 0 0 0 0 0 0 0 0 0 0 0.3 0"/>
<feBlend mode="normal" in2="shape" result="effect1_innerShadow_2033_33"/>
</filter>
<filter id="filter5_i_2033_33" x="102" y="358" width="60" height="36" filterUnits="userSpaceOnUse" color-interpolation-filters="sRGB">
<feFlood flood-opacity="0" result="BackgroundImageFix"/>
<feBlend mode="normal" in="SourceGraphic" in2="BackgroundImageFix" result="shape"/>
<feColorMatrix in="SourceAlpha" type="matrix" values="0 0 0 0 0 0 0 0 0 0 0 0 0 0 0 0 0 0 127 0" result="hardAlpha"/>
<feMorphology radius="4" operator="erode" in="SourceAlpha" result="effect1_innerShadow_2033_33"/>
<feOffset dy="-2"/>
<feGaussianBlur stdDeviation="1"/>
<feComposite in2="hardAlpha" operator="arithmetic" k2="-1" k3="1"/>
<feColorMatrix type="matrix" values="0 0 0 0 0 0 0 0 0 0 0 0 0 0 0 0 0 0 0.3 0"/>
<feBlend mode="normal" in2="shape" result="effect1_innerShadow_2033_33"/>
</filter>
<filter id="filter6_i_2033_33" x="102" y="290" width="60" height="36" filterUnits="userSpaceOnUse" color-interpolation-filters="sRGB">
<feFlood flood-opacity="0" result="BackgroundImageFix"/>
<feBlend mode="normal" in="SourceGraphic" in2="BackgroundImageFix" result="shape"/>
<feColorMatrix in="SourceAlpha" type="matrix" values="0 0 0 0 0 0 0 0 0 0 0 0 0 0 0 0 0 0 127 0" result="hardAlpha"/>
<feMorphology radius="4" operator="erode" in="SourceAlpha" result="effect1_innerShadow_2033_33"/>
<feOffset dy="-2"/>
<feGaussianBlur stdDeviation="1"/>
<feComposite in2="hardAlpha" operator="arithmetic" k2="-1" k3="1"/>
<feColorMatrix type="matrix" values="0 0 0 0 0 0 0 0 0 0 0 0 0 0 0 0 0 0 0.3 0"/>
<feBlend mode="normal" in2="shape" result="effect1_innerShadow_2033_33"/>
</filter>
<filter id="filter7_i_2033_33" x="862" y="698" width="60" height="36" filterUnits="userSpaceOnUse" color-interpolation-filters="sRGB">
<feFlood flood-opacity="0" result="BackgroundImageFix"/>
<feBlend mode="normal" in="SourceGraphic" in2="BackgroundImageFix" result="shape"/>
<feColorMatrix in="SourceAlpha" type="matrix" values="0 0 0 0 0 0 0 0 0 0 0 0 0 0 0 0 0 0 127 0" result="hardAlpha"/>
<feMorphology radius="4" operator="erode" in="SourceAlpha" result="effect1_innerShadow_2033_33"/>
<feOffset dy="-2"/>
<feGaussianBlur stdDeviation="1"/>
<feComposite in2="hardAlpha" operator="arithmetic" k2="-1" k3="1"/>
<feColorMatrix type="matrix" values="0 0 0 0 0 0 0 0 0 0 0 0 0 0 0 0 0 0 0.3 0"/>
<feBlend mode="normal" in2="shape" result="effect1_innerShadow_2033_33"/>
</filter>
<filter id="filter8_i_2033_33" x="862" y="630" width="60" height="36" filterUnits="userSpaceOnUse" color-interpolation-filters="sRGB">
<feFlood flood-opacity="0" result="BackgroundImageFix"/>
<feBlend mode="normal" in="SourceGraphic" in2="BackgroundImageFix" result="shape"/>
<feColorMatrix in="SourceAlpha" type="matrix" values="0 0 0 0 0 0 0 0 0 0 0 0 0 0 0 0 0 0 127 0" result="hardAlpha"/>
<feMorphology radius="4" operator="erode" in="SourceAlpha" result="effect1_innerShadow_2033_33"/>
<feOffset dy="-2"/>
<feGaussianBlur stdDeviation="1"/>
<feComposite in2="hardAlpha" operator="arithmetic" k2="-1" k3="1"/>
<feColorMatrix type="matrix" values="0 0 0 0 0 0 0 0 0 0 0 0 0 0 0 0 0 0 0.3 0"/>
<feBlend mode="normal" in2="shape" result="effect1_innerShadow_2033_33"/>
</filter>
<filter id="filter9_i_2033_33" x="862" y="562" width="60" height="36" filterUnits="userSpaceOnUse" color-interpolation-filters="sRGB">
<feFlood flood-opacity="0" result="BackgroundImageFix"/>
<feBlend mode="normal" in="SourceGraphic" in2="BackgroundImageFix" result="shape"/>
<feColorMatrix in="SourceAlpha" type="matrix" values="0 0 0 0 0 0 0 0 0 0 0 0 0 0 0 0 0 0 127 0" result="hardAlpha"/>
<feMorphology radius="4" operator="erode" in="SourceAlpha" result="effect1_innerShadow_2033_33"/>
<feOffset dy="-2"/>
<feGaussianBlur stdDeviation="1"/>
<feComposite in2="hardAlpha" operator="arithmetic" k2="-1" k3="1"/>
<feColorMatrix type="matrix" values="0 0 0 0 0 0 0 0 0 0 0 0 0 0 0 0 0 0 0.3 0"/>
<feBlend mode="normal" in2="shape" result="effect1_innerShadow_2033_33"/>
</filter>
<filter id="filter10_i_2033_33" x="862" y="494" width="60" height="36" filterUnits="userSpaceOnUse" color-interpolation-filters="sRGB">
<feFlood flood-opacity="0" result="BackgroundImageFix"/>
<feBlend mode="normal" in="SourceGraphic" in2="BackgroundImageFix" result="shape"/>
<feColorMatrix in="SourceAlpha" type="matrix" values="0 0 0 0 0 0 0 0 0 0 0 0 0 0 0 0 0 0 127 0" result="hardAlpha"/>
<feMorphology radius="4" operator="erode" in="SourceAlpha" result="effect1_innerShadow_2033_33"/>
<feOffset dy="-2"/>
<feGaussianBlur stdDeviation="1"/>
<feComposite in2="hardAlpha" operator="arithmetic" k2="-1" k3="1"/>
<feColorMatrix type="matrix" values="0 0 0 0 0 0 0 0 0 0 0 0 0 0 0 0 0 0 0.3 0"/>
<feBlend mode="normal" in2="shape" result="effect1_innerShadow_2033_33"/>
</filter>
<filter id="filter11_i_2033_33" x="862" y="426" width="60" height="36" filterUnits="userSpaceOnUse" color-interpolation-filters="sRGB">
<feFlood flood-opacity="0" result="BackgroundImageFix"/>
<feBlend mode="normal" in="SourceGraphic" in2="BackgroundImageFix" result="shape"/>
<feColorMatrix in="SourceAlpha" type="matrix" values="0 0 0 0 0 0 0 0 0 0 0 0 0 0 0 0 0 0 127 0" result="hardAlpha"/>
<feMorphology radius="4" operator="erode" in="SourceAlpha" result="effect1_innerShadow_2033_33"/>
<feOffset dy="-2"/>
<feGaussianBlur stdDeviation="1"/>
<feComposite in2="hardAlpha" operator="arithmetic" k2="-1" k3="1"/>
<feColorMatrix type="matrix" values="0 0 0 0 0 0 0 0 0 0 0 0 0 0 0 0 0 0 0.3 0"/>
<feBlend mode="normal" in2="shape" result="effect1_innerShadow_2033_33"/>
</filter>
<filter id="filter12_i_2033_33" x="862" y="358" width="60" height="36" filterUnits="userSpaceOnUse" color-interpolation-filters="sRGB">
<feFlood flood-opacity="0" result="BackgroundImageFix"/>
<feBlend mode="normal" in="SourceGraphic" in2="BackgroundImageFix" result="shape"/>
<feColorMatrix in="SourceAlpha" type="matrix" values="0 0 0 0 0 0 0 0 0 0 0 0 0 0 0 0 0 0 127 0" result="hardAlpha"/>
<feMorphology radius="4" operator="erode" in="SourceAlpha" result="effect1_innerShadow_2033_33"/>
<feOffset dy="-2"/>
<feGaussianBlur stdDeviation="1"/>
<feComposite in2="hardAlpha" operator="arithmetic" k2="-1" k3="1"/>
<feColorMatrix type="matrix" values="0 0 0 0 0 0 0 0 0 0 0 0 0 0 0 0 0 0 0.3 0"/>
<feBlend mode="normal" in2="shape" result="effect1_innerShadow_2033_33"/>
</filter>
<filter id="filter13_i_2033_33" x="862" y="290" width="60" height="36" filterUnits="userSpaceOnUse" color-interpolation-filters="sRGB">
<feFlood flood-opacity="0" result="BackgroundImageFix"/>
<feBlend mode="normal" in="SourceGraphic" in2="BackgroundImageFix" result="shape"/>
<feColorMatrix in="SourceAlpha" type="matrix" values="0 0 0 0 0 0 0 0 0 0 0 0 0 0 0 0 0 0 127 0" result="hardAlpha"/>
<feMorphology radius="4" operator="erode" in="SourceAlpha" result="effect1_innerShadow_2033_33"/>
<feOffset dy="-2"/>
<feGaussianBlur stdDeviation="1"/>
<feComposite in2="hardAlpha" operator="arithmetic" k2="-1" k3="1"/>
<feColorMatrix type="matrix" values="0 0 0 0 0 0 0 0 0 0 0 0 0 0 0 0 0 0 0.3 0"/>
<feBlend mode="normal" in2="shape" result="effect1_innerShadow_2033_33"/>
</filter>
<linearGradient id="paint0_linear_2033_33" x1="102" y1="717" x2="162" y2="717" gradientUnits="userSpaceOnUse">
<stop offset="0.19" stop-color="#F5F5F5"/>
<stop offset="0.345" stop-color="#BFBFBF"/>
<stop offset="0.565" stop-color="#474747"/>
<stop offset="1" stop-color="#DBDBDB"/>
</linearGradient>
<linearGradient id="paint1_linear_2033_33" x1="102" y1="649" x2="162" y2="649" gradientUnits="userSpaceOnUse">
<stop offset="0.19" stop-color="#F5F5F5"/>
<stop offset="0.345" stop-color="#BFBFBF"/>
<stop offset="0.565" stop-color="#474747"/>
<stop offset="1" stop-color="#DBDBDB"/>
</linearGradient>
<linearGradient id="paint2_linear_2033_33" x1="102" y1="581" x2="162" y2="581" gradientUnits="userSpaceOnUse">
<stop offset="0.19" stop-color="#F5F5F5"/>
<stop offset="0.345" stop-color="#BFBFBF"/>
<stop offset="0.565" stop-color="#474747"/>
<stop offset="1" stop-color="#DBDBDB"/>
</linearGradient>
<linearGradient id="paint3_linear_2033_33" x1="102" y1="513" x2="162" y2="513" gradientUnits="userSpaceOnUse">
<stop offset="0.19" stop-color="#F5F5F5"/>
<stop offset="0.345" stop-color="#BFBFBF"/>
<stop offset="0.565" stop-color="#474747"/>
<stop offset="1" stop-color="#DBDBDB"/>
</linearGradient>
<linearGradient id="paint4_linear_2033_33" x1="102" y1="445" x2="162" y2="445" gradientUnits="userSpaceOnUse">
<stop offset="0.19" stop-color="#F5F5F5"/>
<stop offset="0.345" stop-color="#BFBFBF"/>
<stop offset="0.565" stop-color="#474747"/>
<stop offset="1" stop-color="#DBDBDB"/>
</linearGradient>
<linearGradient id="paint5_linear_2033_33" x1="102" y1="377" x2="162" y2="377" gradientUnits="userSpaceOnUse">
<stop offset="0.19" stop-color="#F5F5F5"/>
<stop offset="0.345" stop-color="#BFBFBF"/>
<stop offset="0.565" stop-color="#474747"/>
<stop offset="1" stop-color="#DBDBDB"/>
</linearGradient>
<linearGradient id="paint6_linear_2033_33" x1="102" y1="309" x2="162" y2="309" gradientUnits="userSpaceOnUse">
<stop offset="0.19" stop-color="#F5F5F5"/>
<stop offset="0.345" stop-color="#BFBFBF"/>
<stop offset="0.565" stop-color="#474747"/>
<stop offset="1" stop-color="#DBDBDB"/>
</linearGradient>
<linearGradient id="paint7_linear_2033_33" x1="922" y1="717" x2="862" y2="717" gradientUnits="userSpaceOnUse">
<stop offset="0.19" stop-color="#F5F5F5"/>
<stop offset="0.345" stop-color="#BFBFBF"/>
<stop offset="0.565" stop-color="#474747"/>
<stop offset="1" stop-color="#DBDBDB"/>
</linearGradient>
<linearGradient id="paint8_linear_2033_33" x1="922" y1="649" x2="862" y2="649" gradientUnits="userSpaceOnUse">
<stop offset="0.19" stop-color="#F5F5F5"/>
<stop offset="0.345" stop-color="#BFBFBF"/>
<stop offset="0.565" stop-color="#474747"/>
<stop offset="1" stop-color="#DBDBDB"/>
</linearGradient>
<linearGradient id="paint9_linear_2033_33" x1="922" y1="581" x2="862" y2="581" gradientUnits="userSpaceOnUse">
<stop offset="0.19" stop-color="#F5F5F5"/>
<stop offset="0.345" stop-color="#BFBFBF"/>
<stop offset="0.565" stop-color="#474747"/>
<stop offset="1" stop-color="#DBDBDB"/>
</linearGradient>
<linearGradient id="paint10_linear_2033_33" x1="922" y1="513" x2="862" y2="513" gradientUnits="userSpaceOnUse">
<stop offset="0.19" stop-color="#F5F5F5"/>
<stop offset="0.345" stop-color="#BFBFBF"/>
<stop offset="0.565" stop-color="#474747"/>
<stop offset="1" stop-color="#DBDBDB"/>
</linearGradient>
<linearGradient id="paint11_linear_2033_33" x1="922" y1="445" x2="862" y2="445" gradientUnits="userSpaceOnUse">
<stop offset="0.19" stop-color="#F5F5F5"/>
<stop offset="0.345" stop-color="#BFBFBF"/>
<stop offset="0.565" stop-color="#474747"/>
<stop offset="1" stop-color="#DBDBDB"/>
</linearGradient>
<linearGradient id="paint12_linear_2033_33" x1="922" y1="377" x2="862" y2="377" gradientUnits="userSpaceOnUse">
<stop offset="0.19" stop-color="#F5F5F5"/>
<stop offset="0.345" stop-color="#BFBFBF"/>
<stop offset="0.565" stop-color="#474747"/>
<stop offset="1" stop-color="#DBDBDB"/>
</linearGradient>
<linearGradient id="paint13_linear_2033_33" x1="922" y1="309" x2="862" y2="309" gradientUnits="userSpaceOnUse">
<stop offset="0.19" stop-color="#F5F5F5"/>
<stop offset="0.345" stop-color="#BFBFBF"/>
<stop offset="0.565" stop-color="#474747"/>
<stop offset="1" stop-color="#DBDBDB"/>
</linearGradient>
</defs>
</svg>
