<svg width="1024" height="1024" viewBox="0 0 1024 1024" fill="none" xmlns="http://www.w3.org/2000/svg">
<path d="M490.08 291.938C504.152 263.853 532.873 246.119 564.286 246.119H581.031C589.956 246.119 595.758 255.515 591.759 263.495L427.06 592.197C425.026 596.257 420.873 598.821 416.332 598.821H355.748C346.823 598.821 341.021 589.425 345.019 581.445L490.08 291.938Z" fill="white"/>
<path d="M532.338 450.162C530.642 453.548 530.644 457.537 532.344 460.921L666.04 727.175C680.124 755.225 708.827 772.93 740.214 772.93H756.971C765.905 772.93 771.706 763.516 767.69 755.536L583.827 390.164C579.39 381.346 566.799 381.358 562.379 390.184L532.338 450.162Z" fill="white"/>
<path d="M613.527 689.798C617.524 697.778 611.722 707.172 602.798 707.172H363.671C325.839 707.172 301.244 667.346 318.186 633.519V633.519C319.433 631.03 321.978 629.458 324.762 629.458H575.895C580.437 629.458 584.59 632.023 586.625 636.084L613.527 689.798Z" fill="white"/>
</svg>
