<svg width="194" height="38" viewBox="0 0 194 38" fill="none" xmlns="http://www.w3.org/2000/svg">
<path d="M4.21739 29.5556H8.43478V25.3333H12.6522V38H8.43478V33.7778H4.21739V38H0V25.3333H4.21739V29.5556Z" fill="#D9D9D9"/>
<path d="M29.5217 38H21.087V33.7778H29.5217V38Z" fill="#D9D9D9"/>
<path d="M46.3913 38H37.9565V33.7778H46.3913V38Z" fill="#D9D9D9"/>
<path d="M54.8261 33.7778H59.0435V29.5556H63.2609V38H50.6087V25.3333H54.8261V33.7778Z" fill="#D9D9D9"/>
<path d="M71.6957 29.5556H75.913V25.3333H80.1304V38H75.913V33.7778H71.6957V38H67.4783V25.3333H71.6957V29.5556Z" fill="#D9D9D9"/>
<path d="M88.5652 25.3333H92.7826V29.5556H88.5652V38H84.3478V21.1111H88.5652V25.3333Z" fill="#D9D9D9"/>
<path d="M105.435 38H101.217V29.5556H97V25.3333H101.217V21.1111H105.435V38Z" fill="#D9D9D9"/>
<path d="M118.087 29.5556H113.87V33.7778H118.087V38H109.652V21.1111H118.087V29.5556Z" fill="#D9D9D9"/>
<path d="M130.739 25.3333H126.522V29.5556H130.739V33.7778H126.522V38H122.304V21.1111H130.739V25.3333Z" fill="#D9D9D9"/>
<path d="M139.174 29.5556H143.391V25.3333H147.609V38H143.391V33.7778H139.174V38H134.957V25.3333H139.174V29.5556Z" fill="#D9D9D9"/>
<path d="M156.043 25.3333H160.261V29.5556H156.043V38H151.826V21.1111H156.043V25.3333Z" fill="#D9D9D9"/>
<path d="M168.696 38H164.478V33.7778H160.261V29.5556H164.478V21.1111H168.696V38Z" fill="#D9D9D9"/>
<path d="M185.565 25.3333H181.348V38H172.913V33.7778H177.13V21.1111H185.565V25.3333Z" fill="#D9D9D9"/>
<path d="M194 38H189.783V33.7778H194V38Z" fill="#D9D9D9"/>
<path d="M21.087 33.7778H16.8696V21.1111H21.087V33.7778Z" fill="#D9D9D9"/>
<path d="M37.9565 33.7778H33.7391V21.1111H37.9565V33.7778Z" fill="#D9D9D9"/>
<path d="M97 33.7778H92.7826V29.5556H97V33.7778Z" fill="#D9D9D9"/>
<path d="M194 29.5556H189.783V21.1111H194V29.5556Z" fill="#D9D9D9"/>
<path d="M8.43478 25.3333H4.21739V21.1111H8.43478V25.3333Z" fill="#D9D9D9"/>
<path d="M63.2609 25.3333H54.8261V21.1111H63.2609V25.3333Z" fill="#D9D9D9"/>
<path d="M75.913 25.3333H71.6957V21.1111H75.913V25.3333Z" fill="#D9D9D9"/>
<path d="M143.391 25.3333H139.174V21.1111H143.391V25.3333Z" fill="#D9D9D9"/>
<path d="M80.1304 4.22222H75.913V16.8889H71.6957V4.22222H67.4783V0H80.1304V4.22222Z" fill="#D9D9D9"/>
<path d="M88.5652 4.22222H92.7826V0H97V16.8889H92.7826V8.44444H88.5652V16.8889H84.3478V0H88.5652V4.22222Z" fill="#D9D9D9"/>
<path d="M105.435 16.8889H101.217V12.6667H105.435V16.8889Z" fill="#D9D9D9"/>
<path d="M113.87 16.8889H109.652V12.6667H113.87V16.8889Z" fill="#D9D9D9"/>
<path d="M126.522 12.6667H130.739V16.8889H118.087V12.6667H122.304V8.44444H126.522V12.6667Z" fill="#D9D9D9"/>
<path d="M109.652 12.6667H105.435V4.22222H109.652V12.6667Z" fill="#D9D9D9"/>
<path d="M130.739 8.44444H126.522V4.22222H130.739V8.44444Z" fill="#D9D9D9"/>
<path d="M105.435 4.22222H101.217V0H105.435V4.22222Z" fill="#D9D9D9"/>
<path d="M113.87 4.22222H109.652V0H113.87V4.22222Z" fill="#D9D9D9"/>
<path d="M126.522 4.22222H118.087V0H126.522V4.22222Z" fill="#D9D9D9"/>
</svg>
